HIERARCHY
ROOT Hips
{
  OFFSET -187.679 86.5976 -156.378
  CHANNELS 6 Xposition Yposition Zposition Zrotation Xrotation Yrotation
  JOINT LeftUpLeg
  {
    OFFSET 8.64259 1.95398 -2.38835
    CHANNELS 3 Zrotation Xrotation Yrotation
    JOINT LeftLeg
    {
      OFFSET 43.7702 0 0
      CHANNELS 3 Zrotation Xrotation Yrotation
      JOINT LeftFoot
      {
        OFFSET 40.6238 0 0
        CHANNELS 3 Zrotation Xrotation Yrotation
        JOINT LeftToeBase
        {
          OFFSET 12.7242 0 0
          CHANNELS 3 Zrotation Xrotation Yrotation
          End Site
          {
            OFFSET 0 0 0
          }
        }
      }
    }
  }
  JOINT RightUpLeg
  {
    OFFSET -8.2249 1.95398 -2.59336
    CHANNELS 3 Zrotation Xrotation Yrotation
    JOINT RightLeg
    {
      OFFSET 43.5653 0 0
      CHANNELS 3 Zrotation Xrotation Yrotation
      JOINT RightFoot
      {
        OFFSET 40.6238 0 0
        CHANNELS 3 Zrotation Xrotation Yrotation
        JOINT RightToeBase
        {
          OFFSET 12.7242 0 0
          CHANNELS 3 Zrotation Xrotation Yrotation
          End Site
          {
            OFFSET 0 0 0
          }
        }
      }
    }
  }
  JOINT Spine
  {
    OFFSET 0.165834 0.87714 6.61349
    CHANNELS 3 Zrotation Xrotation Yrotation
    JOINT Spine1
    {
      OFFSET 7.38963 1.71661e-005 0
      CHANNELS 3 Zrotation Xrotation Yrotation
      JOINT Spine2
      {
        OFFSET 11.9445 1.14441e-005 0
        CHANNELS 3 Zrotation Xrotation Yrotation
        JOINT Spine3
        {
          OFFSET 14.7254 4.19617e-005 0
          CHANNELS 3 Zrotation Xrotation Yrotation
          JOINT Spine4
          {
            OFFSET 10.9679 0 0
            CHANNELS 3 Zrotation Xrotation Yrotation
            JOINT RightShoulder
            {
              OFFSET 2.46616 -1.6653 3.69651
              CHANNELS 3 Zrotation Xrotation Yrotation
              JOINT RightArm
              {
                OFFSET 13.0012 0 0
                CHANNELS 3 Zrotation Xrotation Yrotation
                JOINT RightForeArm
                {
                  OFFSET 28.7848 1.52588e-005 0
                  CHANNELS 3 Zrotation Xrotation Yrotation
                  JOINT RightHand
                  {
                    OFFSET 26.5688 1.52588e-005 0
                    CHANNELS 3 Zrotation Xrotation Yrotation
                    End Site
                    {
                      OFFSET 0 0 0
                    }
                  }
                }
              }
            }
            JOINT LeftShoulder
            {
              OFFSET 2.38034 -1.29275 -3.7523
              CHANNELS 3 Zrotation Xrotation Yrotation
              JOINT LeftArm
              {
                OFFSET 16.3182 6.10352e-005 0
                CHANNELS 3 Zrotation Xrotation Yrotation
                JOINT LeftForeArm
                {
                  OFFSET 27.0901 0 0
                  CHANNELS 3 Zrotation Xrotation Yrotation
                  JOINT LeftHand
                  {
                    OFFSET 24.5451 1.52588e-005 0
                    CHANNELS 3 Zrotation Xrotation Yrotation
                    End Site
                    {
                      OFFSET 0 0 0
                    }
                  }
                }
              }
            }
            JOINT Neck
            {
              OFFSET 5.0226 -0.0266342 0
              CHANNELS 3 Zrotation Xrotation Yrotation
              JOINT Head
              {
                OFFSET 6.69363 2.86102e-005 0
                CHANNELS 3 Zrotation Xrotation Yrotation
                End Site
                {
                  OFFSET 0 0 0
                }
              }
            }
          }
        }
      }
    }
  }
}
MOTION
Frames:	18
Frame Time:	0.0416667
19.0797 93.6541 43.306 84.6558 -48.4059 89.3694 -169.746 -6.97631 87.5318 -79.0168 12.6209 4.49937 52.8983 -2.92042 1.63428 27.4639 0.80472 -3.97181 179.026 37.6502 98.0996 -40.849 -0.439507 0.75509 65.1322 -2.29595 0.753105 23.0774 -1.43628 1.60953 -0.818338 7.8274 -90.9036 11.2029 -2.04879 -1.59758 -0.467295 -2.11708 -1.50586 -23.0022 -1.47406 -2.13937 -2.98951 -1.47405 -2.13938 87.5443 -44.4915 -105.976 -13.1521 -14.8597 -38.5062 3.14927 20.5513 -77.4929 -17.5061 -1.65714 6.04508 -92.5942 -43.6068 73.3412 0.325321 4.01174 -32.6664 54.6673 16.7523 -70.831 -19.5881 11.6184 -72.3871 18.5099 10.2214 4.37722 2.77911 8.46335 -1.93323 
24.5962 92.2958 48.567 85.7161 -47.3868 89.498 -168.093 -0.166579 89.8533 -91.4952 5.40572 4.55092 55.9385 -1.23935 3.50071 24.827 0.413432 -5.4551 177.23 38.0124 97.9137 -51.2059 -2.86526 0.590244 68.3192 -3.27717 -1.37006 14.0043 -3.66377 2.97839 -0.554038 7.9041 -90.7998 11.0541 -1.47371 -1.44984 -0.616703 -1.53608 -1.38358 -23.1487 -0.969937 -1.82564 -3.13603 -0.969926 -1.82564 87.7785 -43.1319 -106.022 -14.215 -12.4162 -40.1554 3.96275 21.0444 -75.9588 -18.806 -1.83147 6.33708 -93.5217 -44.7081 72.208 1.90958 2.36672 -36.1255 39.1927 10.645 -66.2317 -25.612 14.1944 -66.9668 18.5781 9.03251 5.33142 3.96586 6.967 -2.5142 
29.4275 90.1025 53.584 85.4473 -46.6498 90.9258 -167.543 11.551 89.7893 -104.877 5.23354 5.75523 58.624 0.042804 5.02278 21.9547 0.0794429 -7.0887 175.865 37.6252 100.408 -60.2539 0.656639 0.705841 75.5626 -6.15786 -0.335537 23.0412 -1.74884 2.51962 -0.141654 8.00914 -90.9457 10.8462 -0.718799 -1.81391 -0.825746 -0.79793 -1.78054 -23.3509 -0.140553 -1.94603 -3.33824 -0.140552 -1.94604 87.9466 -42.2778 -106.014 -15.6109 -9.02533 -42.3039 4.84112 21.6893 -74.1447 -18.96 -1.89542 6.63714 -94.3437 -45.7045 71.2369 2.64152 0.534192 -39.5839 20.7572 -0.203072 -63.5621 -32.977 14.7574 -55.4509 20.9124 7.77633 5.61928 4.35877 5.55926 -2.09768 
33.9594 89.2921 58.7589 85.3788 -44.9338 92.9098 -170.04 23.8545 93.1018 -114.931 15.1357 7.55079 58.3142 0.167071 10.4971 18.9809 -0.0820121 -9.07005 173.662 33.2836 102.283 -63.0687 2.22737 1.9872 81.9597 -8.37282 -0.410884 23.0624 -2.57193 4.90737 0.167603 8.11443 -91.1029 10.6381 -0.173599 -2.17684 -1.03462 -0.269196 -2.1671 -23.5556 0.488489 -2.12843 -3.54295 0.488497 -2.12844 87.5859 -42.5045 -106.54 -17.4546 -6.08833 -43.8741 12.0368 24.5249 -72.8937 -24.3811 -2.63683 7.46264 -94.5069 -45.0592 70.7825 1.40393 -1.95996 -42.646 1.99174 -12.6202 -60.3363 -28.7164 7.64779 -34.924 23.7053 6.22074 4.44553 3.56809 4.37819 -1.02401 
39.5985 88.8491 64.3665 85.8397 -42.3064 92.6016 -173.669 33.2364 92.522 -119.402 21.1073 8.4855 61.1224 2.0438 12.7094 17.7521 0.69564 -11.829 172.582 26.8176 100.595 -63.8034 3.40975 2.71307 87.2566 -9.83171 1.20744 26.1028 -1.52352 3.55105 0.240486 8.2216 -91.0696 10.4257 -0.0112001 -2.12407 -1.24698 -0.104653 -2.12153 -23.7691 0.627545 -2.02933 -3.75643 0.627553 -2.02933 88.355 -40.0031 -106.062 -16.0705 -3.70531 -44.671 7.66243 24.0468 -69.2907 -19.8856 -1.82299 5.64782 -93.3441 -45.2664 72.6525 0.339391 -1.60767 -45.9193 -10.498 -22.0183 -60.1286 -21.0249 2.76826 -21.4436 25.9884 5.2714 5.58762 2.16851 2.92584 -1.99986 
45.6184 88.4974 70.3173 86.4615 -39.3792 91.4059 -176.719 40.7923 90.8219 -119.38 21.7891 8.61815 65.0752 4.3142 12.4322 20.7676 1.96383 -12.9357 172.124 18.8473 98.5433 -62.3458 6.70704 3.21703 92.877 -11.6167 1.36823 27.302 -1.807 5.23543 0.354522 8.24295 -90.8356 10.3881 0.323563 -1.68888 -1.28386 0.248928 -1.70149 -23.812 0.816139 -1.51362 -3.79935 0.816125 -1.51363 88.0332 -40.4558 -106.461 -14.3301 -1.12698 -42.7894 6.75492 23.3098 -67.5346 -18.6693 -1.48093 4.23699 -92.7585 -43.9931 73.1946 -3.19053 -1.18639 -48.0044 -15.3816 -25.5532 -58.5405 -11.9204 0.509618 -11.6139 25.8954 2.87359 4.34175 2.33079 1.11071 -1.41561 
51.8145 89.0886 76.3771 85.429 -37.831 87.9435 -175.952 47.7873 86.6633 -114.243 19.0847 7.79398 67.8765 5.59345 11.0391 25.2216 1.91319 -9.43983 171.427 12.1783 94.9321 -58.4816 3.96718 3.2851 91.7608 -11.5108 -0.807853 30.8776 -0.984756 4.82803 0.522352 8.05896 -90.4061 10.7597 0.852802 -0.88884 -0.911308 0.812854 -0.925517 -23.4475 1.08052 -0.591436 -3.43485 1.0805 -0.591454 86.5941 -42.4879 -108.186 -12.7914 0.631168 -40.0745 7.34827 23.0364 -66.6363 -18.529 -1.48722 4.34028 -92.3186 -44.1119 73.9239 -2.38318 1.77757 -49.1018 -18.9413 -28.3448 -58.5169 -8.73636 0.108608 -8.17875 24.4808 0.507481 2.458 2.88022 -0.411855 -0.819849 
58.5061 90.4111 82.9751 85.5303 -37.1493 85.7189 -174.13 51.1275 83.249 -105.804 15.3886 6.5591 71.3081 7.2554 8.71997 25.7334 1.4788 -7.7042 171.611 2.76424 94.4578 -51.4096 1.71274 2.91983 85.3967 -9.83921 -4.43672 35.4112 -0.528733 6.84403 0.76738 7.95888 -90.0024 10.9579 1.52666 -0.14937 -0.712135 1.51862 -0.216434 -23.2543 1.50095 0.316466 -3.24168 1.50098 0.316476 85.5951 -44.3253 -109.175 -9.20299 2.10902 -37.558 8.02233 22.6329 -66.1709 -19.5668 -1.48725 3.85629 -91.2339 -43.6865 75.5286 -1.29129 5.36336 -49.5668 -20.4363 -29.8811 -58.0795 -4.01177 -0.0419794 -5.05924 23.3583 -1.75034 -0.453968 2.57863 -1.47793 0.942384 
65.5041 92.0908 89.9772 87.1951 -36.9845 85.0396 -173.176 51.2541 81.5779 -95.2568 13.8165 5.09375 73.295 7.7651 7.04947 27.5058 2.1538 -8.11923 172.834 -6.37906 92.0578 -41.9989 3.42621 1.8927 75.5244 -6.17785 -4.70282 38.4872 -0.595767 10.407 1.06259 7.97851 -89.6563 10.9135 2.27455 0.468937 -0.75551 2.29299 0.368313 -23.3033 2.02845 1.1311 -3.29067 2.02842 1.13109 83.8861 -46.4306 -111.128 -5.93967 3.8419 -33.5646 3.79667 19.9514 -66.104 -15.6888 -0.987962 2.35179 -90.1081 -42.8628 77.1205 -0.22141 9.73923 -48.4192 -21.2129 -29.6879 -59.6963 -1.97123 -0.0880542 -4.56645 22.0945 -3.92061 -2.38137 1.90161 -2.9446 0.839342 
72.7084 94.0769 97.1238 87.2545 -37.2491 83.2255 -172.71 50.4198 80.39 -82.1614 13.6366 3.10762 75.0519 8.25124 5.60338 25.3903 1.83196 -9.05196 173.914 -14.3288 90.8297 -32.5285 1.67347 -0.0068811 62.8908 -1.3456 -3.80012 35.9221 -0.930156 9.22457 1.49748 7.83447 -89.2503 11.1881 3.32889 1.16633 -0.47894 3.37702 1.01854 -23.0362 2.82443 2.11342 -3.02353 2.82443 2.11341 82.5521 -48.5639 -112.394 -2.13926 6.33117 -28.228 6.81696 18.8799 -68.0414 -18.6067 -1.23238 2.71191 -89.3754 -41.1976 77.9001 3.42359 15.9171 -49.2024 -22.8687 -32.1606 -60.2556 -2.28042 -0.0870057 -6.02508 21.4973 -6.92852 -6.05843 -0.317505 -4.64842 2.24759 
80.1454 95.543 104.125 85.9478 -36.4516 80.3471 -173.828 49.3674 78.9577 -67.5558 13.2065 1.24808 75.5366 7.93855 3.43452 26.8121 1.88143 -7.91936 173.855 -19.499 89.6591 -27.1281 0.00862474 -1.25658 56.0148 1.34933 -2.00641 20.0157 -2.55001 3.32137 1.75625 7.6391 -88.8935 11.5697 4.01179 1.78979 -0.0960589 4.08665 1.61127 -22.6576 3.28849 2.91335 -2.64495 3.28849 2.91335 82.5064 -48.0377 -112.659 1.98233 9.24758 -23.7304 4.58034 16.1366 -69.2418 -17.0924 -0.981452 1.59168 -88.6227 -39.8195 78.8136 5.95698 20.2538 -49.2483 -23.7668 -32.249 -62.3611 -2.51253 -0.0854628 -7.49017 22.1407 -9.06149 -6.72288 -3.19065 -6.5137 1.39732 
87.1997 96.2064 110.862 84.5381 -35.2724 78.5424 -175.488 48.3256 78.9434 -53.3742 15.6306 0.108502 73.9538 6.75173 1.3599 26.973 1.06641 -5.27775 173.814 -22.6535 89.953 -27.2195 -2.59889 -1.43527 56.39 1.31075 -2.03217 17.8385 -2.94471 3.10529 1.96435 7.56348 -88.6612 11.7038 4.53519 2.19349 0.039247 4.62732 1.99145 -22.526 3.6665 3.45577 -2.51339 3.6665 3.45577 83.1678 -48.2725 -111.565 4.43589 12.0518 -21.9713 10.5201 16.6005 -69.7691 -22.2702 -1.12264 0.79607 -88.1176 -37.788 79.1887 9.68776 22.3462 -51.3066 -25.634 -32.9431 -64.5545 -2.43209 -0.0832527 -9.26209 23.1526 -10.9588 -7.64754 -3.78541 -7.9778 1.35893 
94.0503 95.934 116.98 82.9709 -33.2195 78.2763 -177.548 48.0347 79.3509 -41.8593 18.9538 0.292871 72.4532 5.9515 0.450822 27.9054 0.793313 -3.46593 175.889 -23.7427 93.6762 -31.367 -2.60868 -0.841031 57.9814 0.299619 -1.20471 21.1087 -2.14844 2.62291 1.99461 7.34397 -88.7369 12.1483 4.56229 2.01572 0.484128 4.64655 1.81264 -22.0852 3.74565 3.2946 -2.07259 3.74565 3.29459 84.1654 -47.3211 -110.376 5.85333 12.3117 -19.6855 24.1811 18.3402 -70.8275 -33.0926 -1.5641 0.369002 -89.0598 -39.8958 78.1018 12.8022 23.4967 -49.8562 -28.0687 -31.7169 -68.66 -2.25502 -0.0903178 -7.67245 21.955 -11.4546 -5.34859 -2.43047 -9.28395 -0.753406 
100.119 95.4519 123.213 82.9153 -31.6919 81.7832 -178.425 47.5257 82.0398 -36.799 24.1977 0.985787 72.7978 6.4811 1.46711 26.2012 -0.0647844 -2.76793 179.001 -23.5053 100.474 -38.5669 -2.16255 1.17693 56.5406 0.487861 -0.88593 21.8347 -2.35883 3.59786 2.03217 7.23594 -89.0958 12.3829 4.4676 1.29701 0.71914 4.52037 1.09875 -21.8599 3.87109 2.58128 -1.84723 3.87112 2.58128 84.0903 -48.3386 -110.135 5.4239 11.803 -17.905 26.0762 17.6165 -71.3066 -35.6419 -2.05971 1.53434 -89.1024 -40.3806 78.1498 12.3201 24.2492 -49.9932 -27.4403 -31.0048 -69.8223 -2.19091 -0.0932795 -7.76129 21.8742 -12.7726 -7.87891 -1.57811 -9.71884 2.10147 
106.493 94.6426 129.242 84.2053 -29.7119 84.9379 -178.952 45.7784 82.9275 -36.771 25.0189 2.09691 74.0872 6.90219 0.804533 22.0174 -3.57536 2.40626 178.71 -22.5958 103.981 -49.4069 -0.549287 3.82121 55.8212 0.491012 0.213686 25.6473 -2.04834 4.90532 1.88427 7.28907 -89.4654 12.2924 3.9982 0.615016 0.627583 4.02139 0.438166 -21.9492 3.62829 1.78968 -1.9366 3.62829 1.78968 84.4208 -47.6103 -109.885 5.81663 10.8463 -15.9582 20.9789 16.211 -72.3175 -31.0854 -2.32806 3.57304 -89.6972 -42.1508 77.6102 12.4052 24.2401 -49.5093 -26.2307 -30.3091 -70.0234 -2.64231 -0.0752691 -6.48031 21.9934 -13.2492 -8.4783 -0.942539 -9.94609 3.09314 
114.082 93.1697 134.757 85.6919 -25.6757 84.5868 179.577 42.4398 79.452 -37.0477 21.4234 3.77559 72.3579 5.67779 -0.460267 26.1282 -0.580004 -1.3619 172.457 -21.3973 100.442 -63.3896 1.40342 6.2544 59.6984 -0.954936 1.71219 23.2663 -2.43762 4.64399 1.32825 7.44673 -89.563 11.9753 2.84699 0.562583 0.307348 2.86899 0.436638 -22.2473 2.54623 1.39268 -2.2346 2.54624 1.39268 86.2193 -45.5432 -107.76 7.51631 10.3939 -14.574 11.7876 12.748 -74.9536 -21.9913 -2.01817 5.59721 -91.1066 -44.615 75.9775 11.0271 22.3531 -47.0694 -25.1973 -28.6642 -70.7013 -2.57851 -0.0868311 -5.10553 22.6882 -12.4435 -6.57445 -0.840912 -9.75113 1.93421 
120.685 92.3419 140.607 87.3057 -24.7629 83.6807 179.923 39.7655 77.2623 -40.8931 25.1829 4.74327 62.7953 1.31535 0.49002 17.2803 -3.46791 -2.47515 165.44 -17.7747 95.0682 -78.3513 3.9398 5.68034 61.5958 -1.63888 -1.211 21.8939 -3.26927 6.16561 0.995157 7.62483 -89.3798 11.6148 2.27013 1.00056 -0.0544992 2.31201 0.899622 -22.5981 1.86451 1.63669 -2.58549 1.86449 1.63668 87.6766 -46.1982 -105.245 8.1511 9.07466 -15.1626 0.0941333 10.0159 -78.3746 -11.0051 -1.14112 7.3106 -90.8379 -42.9289 75.9604 7.48707 21.6005 -46.1075 -25.5066 -27.6352 -71.9167 -5.38363 -0.0489327 -5.62599 22.6946 -12.0409 -8.41941 -0.345059 -8.71477 3.13633 
126.127 91.8615 146.847 89.0802 -26.5669 84.368 -176.696 38.4444 78.081 -50.4873 30.3006 3.19853 62.4758 2.60958 8.39673 19.5954 -0.811146 -6.86897 160.439 -12.0179 91.8848 -92.6781 12.598 3.4736 63.1936 -2.95168 -2.03291 20.1978 -3.29853 5.24422 0.831556 7.84242 -89.222 11.1759 2.01666 1.35103 -0.494046 2.07415 1.26094 -23.0315 1.51745 1.89463 -3.01885 1.51743 1.89461 86.151 -48.456 -106.942 6.96451 10.094 -13.7959 -10.377 7.04467 -83.3695 0.0428563 0.0349288 7.48489 -90.2765 -39.7313 76.0201 5.34221 19.7951 -46.5096 -25.0513 -27.6858 -71.0283 -4.23419 -0.0818449 -4.50382 20.3172 -11.2939 -13.0933 2.62779 -6.51653 5.88381 
